<svg width="26" height="19" viewBox="0 0 26 19" fill="none" xmlns="http://www.w3.org/2000/svg">
<path d="M8.89193 14.853L23.1416 0.507795C23.4779 0.169265 23.8702 0 24.3186 0C24.767 0 25.1593 0.169265 25.4956 0.507795C25.8319 0.846326 26 1.24861 26 1.71465C26 2.1807 25.8319 2.58242 25.4956 2.91982L10.0689 18.4922C9.73262 18.8307 9.3403 19 8.89193 19C8.44356 19 8.05124 18.8307 7.71496 18.4922L0.485014 11.2138C0.148738 10.8753 -0.012675 10.4736 0.000776022 10.0086C0.0142271 9.54373 0.189651 9.14144 0.527048 8.80178C0.864446 8.46212 1.26406 8.29286 1.72588 8.29399C2.18769 8.29511 2.58674 8.46438 2.92302 8.80178L8.89193 14.853Z" fill="black"/>
</svg>
